<?xml version="1.0" standalone="no"?>
<!DOCTYPE svg PUBLIC "-//W3C//DTD SVG 20010904//EN"
 "http://www.w3.org/TR/2001/REC-SVG-20010904/DTD/svg10.dtd">
<svg version="1.0" xmlns="http://www.w3.org/2000/svg"
 width="300.000000pt" height="300.000000pt" viewBox="0 0 300.000000 300.000000"
 preserveAspectRatio="xMidYMid meet">
<metadata>
Created by potrace 1.10, written by Peter Selinger 2001-2011
</metadata>
<g transform="translate(0.000000,300.000000) scale(0.100000,-0.100000)"
fill="#000000" stroke="none">
<path d="M2134 2416 c-3 -7 -4 -33 -2 -57 3 -40 6 -44 31 -47 l28 -3 -6 -162
c-5 -96 -13 -175 -21 -195 -22 -54 -192 -229 -249 -258 -56 -27 -160 -41 -219
-30 l-37 7 60 62 c114 116 151 219 151 418 0 123 1 128 22 131 17 2 21 10 22
37 1 24 -4 35 -16 39 -9 2 -18 13 -20 25 -5 31 -28 34 -28 3 l0 -26 -119 0
c-116 0 -120 1 -123 23 -2 12 -7 22 -13 22 -5 0 -11 -10 -13 -22 -2 -13 -10
-23 -18 -23 -10 0 -14 -12 -14 -40 0 -34 3 -40 21 -40 20 0 21 -3 17 -127 -4
-155 -15 -181 -116 -274 -74 -69 -146 -109 -227 -128 l-51 -12 -124 126 c-143
144 -198 178 -318 195 -41 6 -77 8 -82 5 -5 -3 -47 -2 -94 1 -82 7 -86 8 -86
30 0 22 -4 24 -45 24 -35 0 -45 -4 -45 -16 0 -12 -7 -15 -26 -11 -18 3 -27 0
-32 -14 -4 -10 -11 -18 -17 -18 -5 0 -11 -4 -13 -10 -2 -6 3 -11 12 -11 14 0
16 -17 16 -115 0 -96 -3 -115 -15 -115 -8 0 -15 -7 -15 -15 0 -8 6 -15 14 -15
8 0 16 -7 20 -15 3 -9 18 -15 36 -15 19 0 29 -5 28 -12 -2 -9 12 -14 40 -16
41 -3 42 -3 42 28 l0 32 123 -3 c111 -4 126 -6 168 -31 25 -15 51 -34 59 -42
11 -14 5 -16 -54 -16 l-66 0 0 30 c0 30 -1 30 -55 30 -42 0 -55 -3 -55 -15 0
-9 -9 -15 -25 -15 -15 0 -25 -6 -25 -15 0 -12 -26 -15 -152 -17 -110 -2 -152
-6 -156 -15 -3 -10 32 -13 152 -13 l156 0 0 -90 0 -90 -156 0 c-120 0 -155 -3
-152 -12 4 -10 46 -14 156 -16 126 -2 152 -5 152 -17 0 -9 10 -15 25 -15 16 0
25 -6 25 -15 0 -12 13 -15 55 -15 54 0 55 1 55 29 l0 29 168 4 c92 3 169 3
171 1 10 -7 -215 -225 -259 -251 -44 -26 -51 -27 -222 -30 l-176 -4 -4 23 c-3
22 -19 25 -88 20 -7 -1 -10 -64 -8 -183 l3 -183 50 0 c42 0 50 3 47 17 -3 17
11 18 170 18 254 0 335 26 466 153 l72 70 0 -181 0 -182 -25 0 c-22 0 -25 -4
-25 -39 0 -22 5 -43 10 -46 6 -3 10 -17 10 -30 0 -13 7 -28 16 -33 9 -5 15
-13 14 -18 -1 -5 3 -10 9 -12 6 -2 11 5 11 15 0 17 9 18 117 16 98 -2 119 -5
121 -17 4 -20 22 -21 22 -1 0 8 7 15 15 15 10 0 15 10 15 29 0 17 5 33 10 36
6 3 10 24 10 46 0 35 -3 39 -25 39 l-25 0 0 309 0 308 46 7 c83 11 111 8 117
-13 6 -24 70 -24 75 0 3 16 86 32 229 44 77 6 173 37 234 76 25 16 100 84 166
152 183 186 203 236 203 509 l0 177 28 3 c15 2 26 6 25 11 -2 4 -3 30 -3 57
l0 50 -185 0 c-149 0 -187 -3 -191 -14z m356 -46 l0 -30 -165 0 -165 0 0 30 0
30 165 0 165 0 0 -30z m-600 -50 c0 -13 -24 -15 -160 -15 -147 0 -177 5 -156
26 2 2 74 4 160 4 132 0 156 -2 156 -15z m548 -192 c-4 -155 -8 -193 -27 -247
-30 -86 -50 -114 -188 -255 -161 -164 -231 -198 -435 -212 l-98 -7 0 112 0
111 38 0 c63 0 163 20 201 40 45 23 232 213 257 260 16 29 19 63 22 208 l4
172 115 0 115 0 -4 -182z m-593 10 c-8 -152 -25 -227 -70 -297 -34 -54 -139
-165 -143 -152 -2 6 -21 11 -43 11 -35 0 -39 -3 -39 -25 0 -24 -2 -25 -73 -25
-40 0 -97 -6 -127 -14 l-54 -14 -42 46 -41 47 51 13 c124 31 271 145 322 248
25 52 27 66 28 180 l1 124 118 0 118 0 -6 -142z m-1375 -213 c0 -168 -1 -175
-20 -175 -19 0 -20 7 -20 175 0 168 1 175 20 175 19 0 20 -7 20 -175z m-70 16
c0 -71 3 -136 6 -145 4 -12 0 -16 -15 -16 -20 0 -21 4 -21 145 0 122 2 145 15
145 13 0 15 -21 15 -129z m382 88 c94 -20 136 -51 293 -211 83 -84 161 -165
173 -179 l23 -27 -47 -23 c-26 -12 -70 -44 -98 -71 -27 -26 -51 -48 -53 -48
-2 0 -3 7 -3 16 0 25 -249 274 -295 295 -32 15 -65 19 -162 19 l-123 0 0 120
0 120 120 0 c65 0 143 -5 172 -11z m-92 -454 l0 -155 -27 0 -28 0 2 148 c1 81
2 150 2 155 1 4 12 7 26 7 l25 0 0 -155z m-80 -5 c0 -89 -3 -120 -12 -120 -10
0 -13 31 -13 120 0 89 3 120 13 120 9 0 12 -31 12 -120z m1000 -50 c0 -136 -2
-160 -15 -160 -13 0 -15 24 -15 160 0 136 2 160 15 160 13 0 15 -24 15 -160z
m-651 61 c45 -49 81 -91 81 -95 0 -3 -72 -6 -160 -6 l-160 0 0 90 0 89 63 4
c34 2 69 4 78 5 10 1 52 -36 98 -87z m707 53 c-3 -9 -6 -67 -6 -130 0 -95 -3
-114 -15 -114 -13 0 -15 21 -15 130 0 126 1 130 21 130 15 0 19 -4 15 -16z
m-116 -118 l0 -114 -62 -6 c-139 -14 -135 -12 -349 -222 -168 -167 -205 -198
-265 -226 l-69 -33 -200 -3 -200 -3 1 116 2 116 173 2 c161 2 177 4 219 26 27
14 107 88 203 187 161 166 219 212 298 239 49 17 142 32 207 34 l42 1 0 -114z
m-184 -283 c-2 -60 -4 -195 -5 -300 l-1 -193 -115 0 -115 0 0 193 c0 188 1
194 23 215 l22 21 0 -95 c0 -135 19 -126 23 11 l3 110 72 73 c39 39 77 72 84
72 10 0 12 -26 9 -107z m-986 -203 l0 -160 -25 0 -25 0 0 160 0 160 25 0 25 0
0 -160z m1034 -335 c5 -13 -17 -15 -159 -15 -140 0 -165 2 -165 15 0 13 24 15
159 15 132 0 160 -3 165 -15z m-14 -60 c0 -13 -23 -15 -150 -15 -127 0 -150 2
-150 15 0 13 23 15 150 15 127 0 150 -2 150 -15z"/>
<path d="M2377 2253 c-13 -12 -7 -33 8 -33 8 0 15 9 15 20 0 20 -11 26 -23 13z"/>
<path d="M2372 2133 c2 -27 8 -48 13 -48 6 0 11 21 13 48 3 38 0 47 -13 47
-13 0 -16 -9 -13 -47z"/>
<path d="M2370 2013 c0 -15 -4 -44 -10 -63 -11 -39 2 -63 18 -33 16 30 19 115
5 120 -9 3 -13 -5 -13 -24z"/>
<path d="M2330 1858 c0 -7 -14 -31 -30 -52 -27 -36 -31 -56 -10 -56 10 0 70
92 70 108 0 16 -30 15 -30 0z"/>
<path d="M2222 1718 c-14 -14 -16 -38 -4 -38 10 0 42 33 42 43 0 11 -25 8 -38
-5z"/>
<path d="M2129 1614 c-46 -47 -114 -92 -161 -105 -23 -6 -38 -16 -38 -25 0
-18 22 -13 95 21 58 28 155 110 155 131 0 22 -14 17 -51 -22z"/>
<path d="M1660 2160 c0 -21 4 -30 13 -27 6 2 12 14 12 27 0 13 -6 25 -12 28
-9 2 -13 -7 -13 -28z"/>
<path d="M1656 2053 c-4 -21 -10 -48 -13 -60 -4 -17 -1 -23 11 -23 11 0 17 14
22 50 8 61 8 64 -4 68 -5 1 -13 -14 -16 -35z"/>
<path d="M605 1990 c-8 -13 20 -24 41 -16 20 8 9 26 -16 26 -10 0 -22 -5 -25
-10z"/>
<path d="M700 1986 c0 -9 17 -16 49 -20 65 -9 164 -59 200 -103 18 -21 34 -32
41 -28 17 10 -64 91 -120 120 -39 19 -130 45 -160 45 -6 0 -10 -6 -10 -14z"/>
<path d="M1017 1803 c-9 -9 22 -43 40 -43 18 0 16 14 -5 33 -21 19 -26 20 -35
10z"/>
<path d="M1393 1583 c-25 -10 -12 -23 22 -23 24 0 35 5 35 15 0 15 -31 19 -57
8z"/>
<path d="M1288 1557 c-16 -6 -28 -17 -28 -24 0 -17 9 -16 54 2 63 26 37 47
-26 22z"/>
<path d="M1198 1509 c-18 -10 -25 -39 -10 -39 13 1 42 27 42 39 0 13 -9 14
-32 0z"/>
<path d="M785 980 c-11 -5 -48 -9 -82 -9 -49 -1 -63 -4 -63 -16 0 -12 13 -15
58 -14 61 0 124 18 124 34 -1 13 -13 15 -37 5z"/>
<path d="M513 958 c2 -7 19 -13 37 -13 18 0 35 6 38 13 2 8 -9 12 -38 12 -29
0 -40 -4 -37 -12z"/>
<path d="M1175 918 c-9 -23 -2 -83 10 -83 14 0 19 75 6 88 -7 7 -12 5 -16 -5z"/>
<path d="M2357 1473 c-4 -3 -7 -17 -7 -30 0 -21 -4 -23 -57 -23 -174 0 -431
-42 -517 -84 -149 -73 -195 -186 -196 -478 0 -141 -1 -148 -20 -148 -18 0 -20
-7 -20 -55 0 -48 2 -55 20 -55 13 0 20 -7 20 -20 0 -11 5 -20 10 -20 6 0 10 9
10 20 0 19 7 20 120 20 113 0 120 -1 120 -20 0 -25 20 -26 27 -1 3 11 13 21
24 24 16 4 19 14 19 56 0 48 -1 51 -26 51 l-27 0 5 163 c5 174 11 198 56 221
39 20 172 44 283 51 52 3 106 8 122 10 24 4 27 2 27 -25 0 -29 1 -30 49 -30
33 0 51 5 54 14 4 9 14 12 27 9 16 -4 23 0 27 16 5 20 11 21 119 21 99 0 114
2 114 16 0 15 -14 16 -115 12 l-115 -4 0 103 0 103 120 0 c66 0 120 4 120 9 0
5 -54 12 -120 16 -92 6 -120 10 -120 21 0 9 -11 14 -30 14 -20 0 -30 5 -30 15
0 11 -11 15 -43 15 -24 0 -47 -3 -50 -7z m73 -188 l0 -165 -25 0 -25 0 0 165
0 165 25 0 25 0 0 -165z m50 5 c0 -118 -2 -140 -15 -140 -13 0 -15 22 -15 140
0 118 2 140 15 140 13 0 15 -22 15 -140z m-130 2 l0 -108 -147 -12 c-164 -13
-293 -40 -323 -67 -32 -29 -40 -80 -40 -242 l0 -153 -116 0 -116 0 4 193 c5
209 15 257 73 332 67 89 233 138 523 154 76 5 138 9 140 10 1 0 2 -48 2 -107z
m-470 -632 l0 -30 -160 0 -160 0 0 30 0 30 160 0 160 0 0 -30z"/>
<path d="M1774 976 c-8 -34 -1 -79 14 -84 8 -3 12 12 12 52 0 57 -15 75 -26
32z"/>
<path d="M1774 836 c-4 -10 -2 -22 4 -28 8 -8 13 -7 18 6 4 10 2 22 -4 28 -8
8 -13 7 -18 -6z"/>
</g>
</svg>
