<svg xmlns="http://www.w3.org/2000/svg" width="512" height="512" viewBox="0 0 512 512" version="1.1">
	<path d="M 482.676 1.590 C 414.957 9.370, 347.972 32.808, 298.400 66.067 C 278.157 79.649, 254.159 100.897, 237.721 119.794 L 233.116 125.087 227.101 122.051 C 215.198 116.043, 206.520 113.767, 193.488 113.237 C 183.243 112.820, 180.308 113.068, 173.544 114.924 C 158.349 119.093, 142.877 129.187, 131.902 142.093 C 112.536 164.864, 98.656 198.687, 96.421 228.551 C 95.458 241.406, 98.074 246, 106.353 246 C 109.089 246, 111.091 244.927, 115.669 241.006 C 127.124 231.195, 139.414 226.298, 155 225.333 C 163.577 224.803, 164.743 224.944, 166.999 226.784 L 169.498 228.821 167.617 233.661 C 162.893 245.819, 156.039 266.325, 153.911 274.669 C 151.862 282.703, 151.713 284.499, 152.710 289.169 C 153.684 293.736, 153.624 294.643, 152.289 295.500 C 151.432 296.050, 147.341 298.678, 143.197 301.340 C 127.831 311.211, 118.793 322.141, 111.092 340.166 C 102.765 359.655, 94.046 402.868, 97 410.001 C 98.962 414.736, 102.996 416.337, 110.895 415.515 C 122.781 414.278, 139.268 411.109, 152 407.615 C 182.525 399.238, 198.987 387.983, 212.098 366.527 C 216.003 360.138, 217.761 358.080, 218.928 358.532 C 223.774 360.412, 229.996 360.115, 239.393 357.554 C 248.373 355.108, 266.298 349.044, 278.339 344.378 L 283.179 342.502 285.216 345.001 C 287.056 347.257, 287.197 348.423, 286.667 357 C 285.702 372.586, 280.805 384.876, 270.994 396.331 C 267.073 400.909, 266 402.911, 266 405.647 C 266 413.926, 270.594 416.542, 283.449 415.579 C 313.313 413.344, 347.136 399.464, 369.907 380.098 C 383.301 368.708, 394.197 351.489, 397.551 336.416 C 401.121 320.369, 398.340 301.520, 389.949 284.899 L 386.913 278.884 392.206 274.279 C 402.714 265.139, 422.792 244.284, 430.887 234.102 C 451.296 208.432, 467.869 179.449, 480.979 146.500 C 496.091 108.520, 507.361 62.016, 511.071 22.323 C 513.196 -0.406, 511.409 -1.711, 482.676 1.590 M 370.500 50.531 C 308.564 75.549, 261.787 114.075, 223.020 172 C 211.140 189.751, 194 220.601, 194 224.234 C 194 225.894, 286.114 318, 287.774 318 C 288.470 318, 293.193 315.919, 298.270 313.375 C 347.737 288.588, 392.762 252.059, 421.598 213.321 C 436.409 193.424, 451.756 165.749, 461.386 141.573 L 466.137 129.646 424.323 87.823 C 401.325 64.820, 382.282 46.020, 382.004 46.044 C 381.727 46.068, 376.550 48.088, 370.500 50.531 M 353.112 102.092 C 343.557 103.314, 333.149 108.666, 325.547 116.268 C 315.541 126.274, 311 137.296, 311 151.576 C 311 179.438, 332.562 201, 360.424 201 C 374.704 201, 385.726 196.459, 395.732 186.453 C 429.538 152.647, 400.911 95.983, 353.112 102.092 M 347.200 125.058 C 337.105 130.103, 331.969 137.970, 331.243 149.500 C 330.656 158.827, 333.275 165.907, 339.684 172.316 C 346.093 178.725, 353.173 181.344, 362.500 180.757 C 374.030 180.031, 381.897 174.895, 386.942 164.800 C 389.501 159.680, 390 157.508, 390 151.500 C 390 134.480, 377.511 122.033, 360.410 122.010 C 354.491 122.002, 352.309 122.505, 347.200 125.058 M 299.500 199.154 C 296.365 200.867, 283.011 214.201, 281.427 217.200 C 276.560 226.412, 285.588 235.440, 294.800 230.573 C 297.985 228.890, 311.285 215.466, 312.888 212.316 C 317.103 204.034, 307.623 194.714, 299.500 199.154 M 259.327 240.696 C 252.298 242.065, 249.551 251.834, 254.687 257.195 C 260.008 262.749, 269.848 259.805, 271.297 252.226 C 272.120 247.920, 269.575 243.138, 265.568 241.464 C 263.641 240.659, 261.937 240.061, 261.782 240.136 C 261.627 240.211, 260.522 240.463, 259.327 240.696 M 70.783 285.783 C 54.449 302.116, 54 302.677, 54 306.727 C 54 312.416, 57.105 315.936, 62.796 316.700 L 67.090 317.275 84.038 300.433 C 102.384 282.202, 103.678 280.145, 100.578 274.151 C 98.598 270.323, 96.228 269, 91.348 269 C 87.788 269, 86.578 269.987, 70.783 285.783 M 159.098 315.014 C 141.587 324.666, 133.417 335.210, 126.135 357.557 C 121.821 370.795, 117.138 392.471, 118.333 393.667 C 119.528 394.861, 141.198 390.181, 154.407 385.877 C 160.955 383.743, 169.280 380.349, 172.907 378.334 C 183.360 372.527, 195.147 359.018, 199.253 348.140 L 200.449 344.972 183.986 328.486 C 174.931 319.419, 166.843 312.008, 166.011 312.018 C 165.180 312.028, 162.069 313.376, 159.098 315.014 M 75.016 339.736 C 72.200 340.262, 2.094 410.646, 0.606 414.440 C -2.051 421.217, 5.157 428.402, 12.750 426.544 C 14.561 426.100, 27.542 413.861, 50.779 390.685 C 89.052 352.515, 89.856 351.489, 86.543 345.084 C 85.568 343.197, 83.445 341.248, 81.466 340.421 C 79.595 339.640, 77.937 339.061, 77.782 339.136 C 77.627 339.211, 76.382 339.481, 75.016 339.736 M 229.500 410.969 C 228.400 411.433, 220.126 419.260, 211.113 428.363 L 194.725 444.914 195.301 449.205 C 196.064 454.895, 199.585 458, 205.273 458 C 209.323 458, 209.884 457.551, 226.217 441.217 C 242.013 425.422, 243 424.212, 243 420.652 C 243 415.826, 241.680 413.403, 238.020 411.510 C 234.795 409.842, 232.518 409.698, 229.500 410.969 M 78.500 425.431 C 76.850 426.174, 59.638 442.721, 40.250 462.201 C 5.565 497.051, 5 497.684, 5 501.664 C 5 508.446, 11.097 513.171, 17.750 511.545 C 19.570 511.100, 32.552 498.802, 56.132 475.186 C 83.453 447.824, 91.886 438.800, 92.291 436.500 C 93.027 432.314, 90.717 427.422, 87.128 425.566 C 83.492 423.686, 82.408 423.669, 78.500 425.431 M 158.500 425.431 C 156.850 426.174, 139.637 442.721, 120.250 462.201 C 85.565 497.051, 85 497.684, 85 501.664 C 85 508.446, 91.097 513.171, 97.750 511.545 C 99.570 511.100, 112.552 498.802, 136.132 475.186 C 163.453 447.824, 171.886 438.800, 172.291 436.500 C 173.027 432.314, 170.717 427.422, 167.128 425.566 C 163.492 423.686, 162.408 423.669, 158.500 425.431" stroke="none" fill="#000000" fill-rule="evenodd"/>
</svg>