<?xml version="1.0" standalone="no"?>
<!DOCTYPE svg PUBLIC "-//W3C//DTD SVG 20010904//EN"
 "http://www.w3.org/TR/2001/REC-SVG-20010904/DTD/svg10.dtd">
<svg version="1.0" xmlns="http://www.w3.org/2000/svg"
 width="512.000000pt" height="512.000000pt" viewBox="0 0 512.000000 512.000000"
 preserveAspectRatio="xMidYMid meet">
<metadata>
Created by potrace 1.10, written by Peter Selinger 2001-2011
</metadata>
<g transform="translate(0.000000,512.000000) scale(0.100000,-0.100000)"
fill="#000000" stroke="none">
<path d="M184 4576 c-48 -21 -59 -71 -24 -106 19 -19 33 -20 263 -20 l242 0
113 -113 113 -114 -21 -64 c-19 -54 -21 -80 -18 -162 l5 -97 -82 -83 c-144
-144 -206 -293 -207 -492 -1 -123 14 -196 62 -301 l31 -68 41 85 c59 117 161
220 278 278 190 93 370 94 560 4 126 -60 227 -159 288 -282 l42 -84 30 67 c49
107 64 179 64 301 0 86 -5 126 -23 185 -43 143 -117 257 -221 343 -49 41 -50
43 -44 82 12 73 6 171 -16 231 l-20 59 112 112 113 113 242 0 c230 0 244 1
263 20 37 37 21 91 -31 109 -50 17 -491 15 -532 -3 -18 -8 -81 -64 -142 -125
-60 -61 -115 -111 -121 -111 -6 0 -19 8 -28 19 -36 39 -136 75 -226 79 -103 5
-177 -14 -251 -64 -28 -19 -54 -34 -57 -34 -4 0 -62 55 -129 123 l-123 122
-258 2 c-201 2 -264 0 -288 -11z m1221 -310 c123 -72 175 -234 116 -359 -45
-93 -158 -167 -256 -167 -98 0 -208 72 -251 165 -30 64 -33 170 -5 231 69 151
255 212 396 130z"/>
<path d="M2685 3726 c-255 -49 -457 -229 -543 -481 l-26 -80 -4 -412 -3 -413
-174 0 -173 0 -4 253 c-4 228 -7 258 -27 316 -63 180 -211 305 -393 332 -216
32 -420 -78 -516 -278 l-37 -78 -5 -270 -5 -270 -185 -6 c-102 -3 -192 -9
-202 -13 -27 -12 -42 -60 -27 -88 6 -12 14 -25 16 -28 3 -3 93 -7 201 -10
l197 -5 3 -85 c2 -60 7 -89 19 -102 15 -17 47 -18 467 -18 248 0 456 4 463 8
21 13 33 62 33 133 l0 69 175 0 175 0 0 -83 c0 -59 5 -89 16 -105 l15 -22
1090 0 c1076 0 1089 0 1109 20 19 19 20 33 20 408 0 427 -4 466 -61 573 -44
82 -128 162 -213 204 -172 84 -370 65 -519 -49 -27 -21 -50 -36 -52 -34 -2 2
-11 37 -19 78 -19 89 -67 194 -125 270 -86 114 -243 220 -380 255 -88 23 -221
27 -306 11z m175 -146 c19 -19 20 -33 20 -330 0 -297 -1 -311 -20 -330 -29
-29 -74 -26 -99 6 -20 26 -21 38 -21 326 l0 299 25 24 c29 30 68 32 95 5z
m-1550 -490 c11 -11 22 -30 25 -42 3 -13 5 -152 3 -309 -3 -266 -4 -288 -22
-308 -25 -28 -77 -28 -102 0 -18 19 -19 42 -22 298 -2 152 0 291 3 309 12 64
75 92 115 52z m2601 1 l24 -19 3 -304 c3 -297 2 -305 -18 -331 -27 -34 -78
-37 -106 -6 -18 19 -19 42 -22 299 -2 174 1 293 7 318 16 58 68 78 112 43z"/>
<path d="M990 1633 c0 -198 1 -210 24 -258 60 -126 198 -189 331 -150 46 13
70 28 116 74 37 38 61 71 68 97 6 22 11 126 11 242 l0 202 -275 0 -275 0 0
-207z"/>
<path d="M3590 1633 c0 -187 2 -212 21 -253 46 -102 141 -163 254 -164 84 -1
143 23 200 79 71 72 79 103 83 338 l4 207 -281 0 -281 0 0 -207z"/>
</g>
</svg>
